<?xml version="1.0" encoding="UTF-8" standalone="no"?>
<svg
   width="30"
   height="30"
   viewBox="0 0 30 30"
   fill="none"
   version="1.1"
   id="svg17"
   sodipodiDocname="search bar.svg"
   xmlnsInkscape="http://www.inkscape.org/namespaces/inkscape"
   xmlnsSodipodi="http://sodipodi.sourceforge.net/DTD/sodipodi-0.dtd"
   xmlns="http://www.w3.org/2000/svg"
   xmlnsSvg="http://www.w3.org/2000/svg">
  <defs
     id="defs17" />
  <sodipodiNamedview
     id="namedview17"
     pagecolor="#ffffff"
     bordercolor="#000000"
     borderopacity="0.25"
     inkscapeShowpageshadow="2"
     inkscapePageopacity="0.0"
     inkscapePagecheckerboard="0"
     inkscapeDeskcolor="#d1d1d1"
     inkscapeZoom="5.1312564"
     inkscapeZx="15.0"
     inkscapeCy="15.0"
     inkscapeWindow-width="1920"
     inkscapeWindow-height="1017"
     inkscapeWindow-x="-8"
     inkscapeWindow-y="-8"
     inkscapeWindow-maximized="1"
     inkscapeCurrent-layer="svg17"
     inkscapeDocument-units="px">
    <sodipodiGuide
       position="-6.6260575,99.610232"
       orientation="0,1"
       inkscapeLabel="baseline"
       id="guide17"
       inkscapeLocked="false" />
    <sodipodiGuide
       position="0,200"
       orientation="0,1"
       inkscapeLabel="ascender"
       id="guide18"
       inkscapeLocked="false" />
    <sodipodiGuide
       position="0,200"
       orientation="0,1"
       inkscapeLabel="caps"
       id="guide19"
       inkscapeLocked="false" />
    <sodipodiGuide
       position="0,200"
       orientation="0,1"
       inkscapeLabel="xheight"
       id="guide20"
       inkscapeLocked="false" />
    <sodipodLguide
       position="4.8721011,79.147407"
       orientation="0,1"
       inkscapeLabel="descender"
       id="guide21"
       inkscapeLocked="false" />
    <sodipodiGuide
       position="0,100"
       orientation="0,1"
       inkscapeLabel="baseline"
       id="guide22"
       inkscapeLocked="false" />
    <sodipodiGuide
       position="0,200"
       orientation="0,1"
       inkscapeLabel="ascender"
       id="guide23"
       inkscapeLocked="false" />
    <sodipodiGuide
       position="0,200"
       orientation="0,1"
       inkscapeLabel="caps"
       id="guide24"
       inkscapeLocked="false" />
    <sodipodiGuide
       position="0,200"
       orientation="0,1"
       inkscapeLabel="xheight"
       id="guide25"
       inkscapeLocked="false" />
    <sodipodiGuide
       position="0,0"
       orientation="0,1"
       inkscapeLabel="descender"
       id="guide26"
       inkscapeLocked="false" />
    <sodipodiGuide
       position="0,30"
       orientation="0,1"
       inkscapeLabel="baseline"
       id="guide27"
       inkscapeLocked="false" />
    <sodipodiGuide
       position="0,60"
       orientation="0,1"
       inkscapeLabel="ascender"
       id="guide28"
       inkscapeLocked="false" />
    <sodipodiGuide
       position="0,60"
       orientation="0,1"
       inkscapeLabel="caps"
       id="guide29"
       inkscapeLocked="false" />
    <sodipodiGuide
       position="0,60"
       orientation="0,1"
       inkscapeLabel="xheight"
       id="guide30"
       inkscapeLocked="false" />
    <sodipodiGuide
       position="0,0"
       orientation="0,1"
       inkscapeLabel="descender"
       id="guide31"
       inkscapeLocked="false" />
    <sodipodiGuide
       position="0,30"
       orientation="0,1"
       inkscapeLabel="baseline"
       id="guide32"
       inkscapeLocked="false" />
    <sodipodiGuide
       position="0,60"
       orientation="0,1"
       inkscapeLabel="ascender"
       id="guide33"
       inkscapeLocked="false" />
    <sodipodiGuide
       position="0,60"
       orientation="0,1"
       inkscapeLabel="caps"
       id="guide34"
       inkscapeLocked="false" />
    <sodipodiGuide
       position="0,60"
       orientation="0,1"
       inkscapeLabel="xheight"
       id="guide35"
       inkscapeLocked="false" />
    <sodipodiGuide
       position="0,0"
       orientation="0,1"
       inkscapeLabel="descender"
       id="guide36"
       inkscapeLocked="false" />
  </sodipodiNamedview>
  <path
     fillRule="evenodd"
     clipRule="evenodd"
     d="m 13.808976,7.4123805 c -3.314,0 -5.9999997,2.6862995 -5.9999997,5.9999995 0,3.3137 2.6859997,6 5.9999997,6 3.314,0 6,-2.6863 6,-6 0,-3.3137 -2.686,-5.9999995 -6,-5.9999995 z M 5.8089763,13.41238 c 0,-4.4182995 3.582,-7.9999995 7.9999997,-7.9999995 4.418,0 8,3.5817 8,7.9999995 0,4.4183 -3.582,8 -8,8 -4.4179997,0 -7.9999997,-3.5817 -7.9999997,-8 z"
     fill="#1d1b20"
     id="path3" />
  <path
     fillRule="evenodd"
     clipRule="evenodd"
     d="m 18.101976,17.70528 c 0.39,-0.3905 1.024,-0.3905 1.414,0 l 6,6 c 0.391,0.3905 0.391,1.0237 0,1.4142 -0.39,0.3905 -1.024,0.3905 -1.414,0 l -6,-6 c -0.391,-0.3905 -0.391,-1.0237 0,-1.4142 z"
     fill="#1d1b20"
     id="path4" />
  <mask
     id="mask0_1646_3212"
     maskUnits="userSpaceOnUse"
     x="787"
     y="5"
     width="37"
     height="34">
    <path
       fillRule="evenodd"
       clipRule="evenodd"
       d="m 814.033,25.6667 h -13.966 l -3.002,-11 h 22.468 z M 822.652,12.738 C 821.979,11.649 820.813,11 819.533,11 H 796.066 L 794.935,6.85117 C 794.717,6.05367 793.993,5.5 793.166,5.5 h -3.667 c -1.013,0 -1.833,0.82133 -1.833,1.83333 0,1.012 0.82,1.83334 1.833,1.83334 h 2.266 l 5.132,18.81553 c 0.218,0.7975 0.942,1.3511 1.769,1.3511 h 16.5 c 0.695,0 1.329,-0.3923 1.641,-1.0138 l 6.006,-12.0138 c 0.574,-1.1459 0.511,-2.4787 -0.161,-3.5677 z M 797.75,33 c -1.518,0 -2.75,1.2302 -2.75,2.75 0,1.5198 1.232,2.75 2.75,2.75 1.518,0 2.75,-1.2302 2.75,-2.75 0,-1.5198 -1.232,-2.75 -2.75,-2.75 z m 15.583,2.75 c 0,-1.5198 1.232,-2.75 2.75,-2.75 1.518,0 2.75,1.2302 2.75,2.75 0,1.5198 -1.232,2.75 -2.75,2.75 -1.518,0 -2.75,-1.2302 -2.75,-2.75 z"
       fill="#ffffff"
       id="path17" />
  </mask>
</svg>
