<?xml version="1.0" encoding="UTF-8" standalone="no"?>
<svg
   width="35.537521"
   height="33"
   viewBox="0 0 35.537521 33"
   fill="none"
   version="1.1"
   id="svg17"
   sodipodi:docname="search bar.svg"
   xmlns:inkscape="http://www.inkscape.org/namespaces/inkscape"
   xmlns:sodipodi="http://sodipodi.sourceforge.net/DTD/sodipodi-0.dtd"
   xmlns="http://www.w3.org/2000/svg"
   xmlns:svg="http://www.w3.org/2000/svg">
  <defs
     id="defs17" />
  <sodipodi:namedview
     id="namedview17"
     pagecolor="#ffffff"
     bordercolor="#000000"
     borderopacity="0.25"
     inkscape:showpageshadow="2"
     inkscape:pageopacity="0.0"
     inkscape:pagecheckerboard="0"
     inkscape:deskcolor="#d1d1d1" />
  <path
     fill-rule="evenodd"
     clip-rule="evenodd"
     d="M 26.367,20.1667 H 12.401 l -3.002,-11 H 31.867 Z M 34.986,7.238 C 34.313,6.149 33.147,5.5 31.867,5.5 H 8.4 L 7.269,1.35117 C 7.051,0.55367 6.327,0 5.5,0 H 1.833 C 0.82000001,0 0,0.82133 0,1.83333 0,2.84533 0.82000001,3.66667 1.833,3.66667 H 4.099 L 9.231,22.4822 c 0.218,0.7975 0.942,1.3511 1.769,1.3511 h 16.5 c 0.695,0 1.329,-0.3923 1.641,-1.0138 L 35.147,10.8057 C 35.721,9.6598 35.658,8.327 34.986,7.238 Z M 10.084,27.5 c -1.518,0 -2.75,1.2302 -2.75,2.75 0,1.5198 1.232,2.75 2.75,2.75 1.518,0 2.75,-1.2302 2.75,-2.75 0,-1.5198 -1.232,-2.75 -2.75,-2.75 z m 15.583,2.75 c 0,-1.5198 1.232,-2.75 2.75,-2.75 1.518,0 2.75,1.2302 2.75,2.75 0,1.5198 -1.232,2.75 -2.75,2.75 -1.518,0 -2.75,-1.2302 -2.75,-2.75 z"
     fill="#48464c"
     id="path16" />
  <mask
     id="mask0_1646_3212"
     maskUnits="userSpaceOnUse"
     x="787"
     y="5"
     width="37"
     height="34">
    <path
       fill-rule="evenodd"
       clip-rule="evenodd"
       d="m 814.033,25.6667 h -13.966 l -3.002,-11 h 22.468 z M 822.652,12.738 C 821.979,11.649 820.813,11 819.533,11 H 796.066 L 794.935,6.85117 C 794.717,6.05367 793.993,5.5 793.166,5.5 h -3.667 c -1.013,0 -1.833,0.82133 -1.833,1.83333 0,1.012 0.82,1.83334 1.833,1.83334 h 2.266 l 5.132,18.81553 c 0.218,0.7975 0.942,1.3511 1.769,1.3511 h 16.5 c 0.695,0 1.329,-0.3923 1.641,-1.0138 l 6.006,-12.0138 c 0.574,-1.1459 0.511,-2.4787 -0.161,-3.5677 z M 797.75,33 c -1.518,0 -2.75,1.2302 -2.75,2.75 0,1.5198 1.232,2.75 2.75,2.75 1.518,0 2.75,-1.2302 2.75,-2.75 0,-1.5198 -1.232,-2.75 -2.75,-2.75 z m 15.583,2.75 c 0,-1.5198 1.232,-2.75 2.75,-2.75 1.518,0 2.75,1.2302 2.75,2.75 0,1.5198 -1.232,2.75 -2.75,2.75 -1.518,0 -2.75,-1.2302 -2.75,-2.75 z"
       fill="#ffffff"
       id="path17" />
  </mask>
  <g
     mask="url(#mask0_1646_3212)"
     id="g17"
     transform="translate(-787.666,-5.5)">
    <rect
       x="784"
       width="44"
       height="44"
       fill="#48464c"
       id="rect17"
       y="0" />
  </g>
</svg>
